<svg width="200" height="200" viewBox="0 0 200 200" fill="none" xmlns="http://www.w3.org/2000/svg">
<path d="M160 20H40C28.9543 20 20 28.9543 20 40V160C20 171.046 28.9543 180 40 180H160C171.046 180 180 171.046 180 160V40C180 28.9543 171.046 20 160 20Z" fill="#3362FF"/>
<path d="M70 95C75.5228 95 80 90.5228 80 85C80 79.4772 75.5228 75 70 75C64.4772 75 60 79.4772 60 85C60 90.5228 64.4772 95 70 95Z" fill="white"/>
<path d="M130 95C135.523 95 140 90.5228 140 85C140 79.4772 135.523 75 130 75C124.477 75 120 79.4772 120 85C120 90.5228 124.477 95 130 95Z" fill="white"/>
<path d="M70 125C90 138.333 110 138.333 130 125" stroke="white" stroke-width="6" stroke-linecap="round"/>
<path opacity="0.2" d="M180 20H20V35H180V20Z" fill="white"/>
<path opacity="0.8" d="M35 34C37.2091 34 39 32.2091 39 30C39 27.7909 37.2091 26 35 26C32.7909 26 31 27.7909 31 30C31 32.2091 32.7909 34 35 34Z" fill="white"/>
<path opacity="0.8" d="M50 34C52.2091 34 54 32.2091 54 30C54 27.7909 52.2091 26 50 26C47.7909 26 46 27.7909 46 30C46 32.2091 47.7909 34 50 34Z" fill="white"/>
<path opacity="0.8" d="M65 34C67.2091 34 69 32.2091 69 30C69 27.7909 67.2091 26 65 26C62.7909 26 61 27.7909 61 30C61 32.2091 62.7909 34 65 34Z" fill="white"/>
</svg>
